<svg width="196" height="48" viewBox="0 0 196 48" fill="none" xmlns="http://www.w3.org/2000/svg">
<path d="M101 15.5C101 19.09 98.09 22 94.5 22C90.91 22 88 19.09 88 15.5C88 11.91 90.91 9 94.5 9C94.67 9 94.85 9.01 95.02 9.02C98.19 9.27 100.73 11.81 100.98 14.98C100.99 15.15 101 15.33 101 15.5Z" fill="#F37E25"/>
<path d="M108 8.5C108 11.76 105.6 14.45 102.48 14.92V14.86C102.17 10.98 99.0201 7.83 95.1101 7.52H95.0801C95.5501 4.4 98.2401 2 101.5 2C105.09 2 108 4.91 108 8.5Z" fill="#F37E25"/>
<path d="M91.59 2H89C88.45 2 88 2.45 88 3V5.59C88 6.48 89.08 6.93 89.71 6.3L92.3 3.71C92.92 3.08 92.48 2 91.59 2Z" fill="#F37E25"/>
<path d="M104.41 22.0003H107C107.55 22.0003 108 21.5503 108 21.0003V18.4103C108 17.5203 106.92 17.0703 106.29 17.7003L103.7 20.2903C103.08 20.9203 103.52 22.0003 104.41 22.0003Z" fill="#F37E25"/>
<path d="M11.6 43L10.4 39.86H3.96L2.78 43H0.16L5.68 29H8.62L14.12 43H11.6ZM4.74 37.82H9.64L7.18 31.34L4.74 37.82ZM21.0373 32.72C24.2573 32.72 24.2573 35.9 24.2573 37.4V43H21.9773V37.46C21.9773 36.32 21.9773 34.7 20.2173 34.7C18.6973 34.7 17.6373 36.06 17.6373 38.1V43H15.3573V33H17.6373V34.84C18.2973 33.52 19.5173 32.72 21.0373 32.72ZM30.4958 32.72C33.4158 32.72 34.8958 34.54 34.8958 37.32V43H32.7958V41.26C32.0558 42.54 30.8358 43.28 29.1958 43.28C27.0758 43.28 25.7558 42.04 25.7558 40.3C25.7558 38.28 27.5158 37.06 30.3358 37.06C31.1158 37.06 31.9158 37.16 32.6158 37.32C32.6158 35.8 32.0758 34.7 30.4758 34.7C29.2758 34.7 28.5358 35.3 28.7758 36.42H26.4758C25.9358 34.2 27.8958 32.72 30.4958 32.72ZM29.6558 41.46C31.1158 41.46 32.3158 40.52 32.6958 39.06C32.0358 38.84 31.2358 38.72 30.5158 38.72C28.8758 38.72 28.0758 39.32 28.0758 40.24C28.0758 41.04 28.6758 41.46 29.6558 41.46ZM37.0003 43V29H39.2803V43H37.0003ZM48.0283 33H50.4083L46.7483 43.76C46.2283 45.32 45.2083 47.22 42.7083 47.22C42.1683 47.22 41.5883 47.14 41.0683 46.94V44.96C41.5683 45.14 42.0283 45.24 42.4683 45.24C43.7283 45.24 44.2683 44.38 44.5883 43.56L40.5683 33H42.9883L45.6083 40.82L48.0283 33ZM57.7888 34.98H54.9288V39.84C54.9288 40.66 55.1288 41.28 56.2288 41.28C56.7488 41.28 57.1488 41.14 57.5688 40.92V42.92C57.1288 43.14 56.5088 43.28 55.7888 43.28C52.8088 43.28 52.6488 40.94 52.6488 39.86V34.98H50.7488V33H52.6488V30.34H54.9288V33H57.7888V34.98ZM60.5431 31.56C59.7231 31.56 59.0831 30.92 59.0831 30.1C59.0831 29.28 59.7231 28.64 60.5431 28.64C61.3631 28.64 62.0031 29.28 62.0031 30.1C62.0031 30.92 61.3631 31.56 60.5431 31.56ZM59.3831 43V33H61.6631V43H59.3831ZM68.6111 43.28C65.5511 43.28 63.5111 41.16 63.5111 38C63.5111 34.82 65.5311 32.72 68.6911 32.72C71.8511 32.72 73.7911 34.84 73.0511 37.88H70.7511C71.1311 35.9 70.3111 34.72 68.6711 34.72C66.9511 34.72 65.8911 36.02 65.8911 38C65.8911 39.98 66.9711 41.28 68.6311 41.28C69.8311 41.28 70.6711 40.56 71.0911 39.44H73.5511C73.0711 41.52 71.3911 43.28 68.6111 43.28ZM79.1625 43.28C76.3425 43.28 74.4825 41.84 74.6425 39.42H76.8425C76.7025 40.66 77.6225 41.44 79.1825 41.44C80.4025 41.44 81.2225 40.96 81.2225 40.24C81.2225 38.24 74.7825 39.68 74.7825 35.94C74.7825 33.94 76.6425 32.72 79.0625 32.72C81.7425 32.72 83.6825 34.22 83.2625 36.48H81.0425C81.3225 35.34 80.4225 34.56 79.0425 34.56C77.8825 34.56 77.1225 35.08 77.1225 35.8C77.1225 37.82 83.5825 36.28 83.5825 40.08C83.5825 42.1 81.7625 43.28 79.1625 43.28Z" fill="#F37E25"/>
<path d="M101.405 29V31.04H96.6453V43H94.2253V31.04H89.4653V29H101.405ZM105.592 32.72C107.172 32.72 108.192 33.92 108.192 35.6C108.192 36.32 108.012 37.04 107.712 37.64H105.332C105.672 37.08 105.832 36.54 105.832 36.08C105.832 35.28 105.392 34.74 104.692 34.74C103.612 34.74 102.852 36.08 102.852 38.1V43H100.572V33H102.852V34.7C103.392 33.46 104.352 32.72 105.592 32.72ZM113.621 32.72C116.541 32.72 118.021 34.54 118.021 37.32V43H115.921V41.26C115.181 42.54 113.961 43.28 112.321 43.28C110.201 43.28 108.881 42.04 108.881 40.3C108.881 38.28 110.641 37.06 113.461 37.06C114.241 37.06 115.041 37.16 115.741 37.32C115.741 35.8 115.201 34.7 113.601 34.7C112.401 34.7 111.661 35.3 111.901 36.42H109.601C109.061 34.2 111.021 32.72 113.621 32.72ZM112.781 41.46C114.241 41.46 115.441 40.52 115.821 39.06C115.161 38.84 114.361 38.72 113.641 38.72C112.001 38.72 111.201 39.32 111.201 40.24C111.201 41.04 111.801 41.46 112.781 41.46ZM127.485 29H129.765V43H127.485V41.52C126.725 42.64 125.545 43.28 124.085 43.28C121.445 43.28 119.585 41.18 119.585 38C119.585 34.84 121.425 32.72 124.085 32.72C125.545 32.72 126.725 33.36 127.485 34.48V29ZM124.785 41.28C126.465 41.28 127.585 39.98 127.585 38C127.585 36.02 126.465 34.72 124.785 34.72C123.085 34.72 121.965 36.02 121.965 38C121.965 39.98 123.085 41.28 124.785 41.28ZM133.18 31.56C132.36 31.56 131.72 30.92 131.72 30.1C131.72 29.28 132.36 28.64 133.18 28.64C134 28.64 134.64 29.28 134.64 30.1C134.64 30.92 134 31.56 133.18 31.56ZM132.02 43V33H134.3V43H132.02ZM142.268 32.72C145.488 32.72 145.488 35.9 145.488 37.4V43H143.208V37.46C143.208 36.32 143.208 34.7 141.448 34.7C139.928 34.7 138.868 36.06 138.868 38.1V43H136.588V33H138.868V34.84C139.528 33.52 140.748 32.72 142.268 32.72ZM152.946 40.76C155.126 41.02 156.526 42.2 156.526 43.92C156.526 45.92 154.566 47.28 151.886 47.28C149.266 47.28 147.266 45.96 146.846 43.82H149.426C149.606 44.72 150.546 45.28 151.866 45.28C153.186 45.28 154.146 44.74 154.146 43.84C154.146 42.94 153.226 42.3 151.526 42.3C150.626 42.3 149.526 42.48 148.566 42.72V41.02C150.166 40.8 151.446 40.36 152.386 39.78C152.026 39.86 151.626 39.9 151.186 39.9C148.746 39.9 147.126 38.54 147.126 36.44C147.126 34.24 148.946 32.74 151.666 32.74C153.066 32.74 154.206 33.14 155.006 33.8C155.206 33.24 155.146 32.4 155.006 31.76H156.866C157.066 32.92 156.686 34.2 155.866 34.9C156.086 35.34 156.206 35.86 156.206 36.4C156.206 38.14 155.026 39.7 152.946 40.76ZM149.506 36.48C149.506 37.54 150.366 38.24 151.666 38.24C152.966 38.24 153.826 37.54 153.826 36.48C153.826 35.42 152.986 34.72 151.666 34.72C150.386 34.72 149.506 35.42 149.506 36.48ZM172.688 35.42C174.448 35.94 175.448 37.16 175.448 38.94C175.448 41.44 173.508 43 170.248 43H163.828V29H170.228C172.948 29 174.528 30.28 174.528 32.5C174.528 33.94 173.868 34.92 172.688 35.42ZM172.028 32.82C172.028 31.68 171.368 31.04 170.228 31.04H166.248V34.66H170.228C171.368 34.66 172.028 33.96 172.028 32.82ZM170.228 40.96C171.948 40.96 172.948 40.14 172.948 38.76C172.948 37.44 171.968 36.66 170.308 36.66H166.248V40.96H170.228ZM182.049 43.28C178.989 43.28 176.949 41.16 176.949 38C176.949 34.84 178.989 32.72 182.049 32.72C185.089 32.72 187.149 34.84 187.149 38C187.149 41.16 185.089 43.28 182.049 43.28ZM182.049 41.28C183.669 41.28 184.769 39.98 184.769 38C184.769 36.02 183.669 34.72 182.049 34.72C180.409 34.72 179.329 36.02 179.329 38C179.329 39.98 180.409 41.28 182.049 41.28ZM194.976 34.98H192.116V39.84C192.116 40.66 192.316 41.28 193.416 41.28C193.936 41.28 194.336 41.14 194.756 40.92V42.92C194.316 43.14 193.696 43.28 192.976 43.28C189.996 43.28 189.836 40.94 189.836 39.86V34.98H187.936V33H189.836V30.34H192.116V33H194.976V34.98Z" fill="#FCF9F8"/>
</svg>
